<?xml version="1.0" encoding="utf-8"?>
<!-- Generator: Adobe Illustrator 27.0.0, SVG Export Plug-In . SVG Version: 6.00 Build 0)  -->
<svg version="1.1" xmlns="http://www.w3.org/2000/svg" xmlns:xlink="http://www.w3.org/1999/xlink" x="0px" y="0px"
	 viewBox="0 0 656.7 293.9" style="enable-background:new 0 0 656.7 293.9;" xml:space="preserve">
<style type="text/css">
	.st0{display:none;}
	.st1{display:inline;fill:#1A2F41;}
	.st2{display:inline;}
	.st3{fill:#EDA1AF;}
	.st4{fill:#A7364A;}
	.st5{fill:#1A2F41;}
	.st6{fill:#F39A5E;}
	.st7{fill:#FAC882;}
	.st8{fill:#467D8A;}
	.st9{fill:#69ACAA;}
</style>
<g id="Layer_1" class="st0">
	<path class="st1" d="M135.6,162.7l-56.9-30.6l-59.4,25.4L2.1,219.8l38,52.2l64.6,2.9l42.5-48.7L135.6,162.7z M64,235.7
		c-4.6-6.1-7.8-9.3-13.5-14.1c-0.8,3.9-1.4,7.7-1.8,11.7c-4.9,0.2-9.7,1.2-14.6,1.5c0.8-4.4,1.6-8.8,2.6-13.2
		c3-14.2,6.7-28.4,10.6-42.2c4.6-0.1,9.4-0.5,14.1-0.8c-2,6.7-4,13.3-5.7,20c8.4-7.2,16.7-15,24.2-21.9c2.7,3.1,6,5.5,8.8,8.6
		c-8.6,7.8-19.5,17.3-28.1,25.1c5.9,5.3,11.9,10,17.1,15.4C73.2,229,68.8,231.9,64,235.7z M120.9,190.4c-5.5,0.5-10.2,1.1-16,2.9
		c-0.9,2.3-1.7,5.4-2.6,9c4.5-0.9,9.1-1.5,13.3-1.9c-0.8,4-1.7,9-2.6,13c-4.2,0.5-8.7,1.4-13.3,2.6c-1,6.3-1.7,12.5-2.2,16.5
		L83,236.3c0.3-7.3,1.6-15.4,3.3-23.8c2.2-10.2,5.2-20.9,8.2-31c9.2-2.8,20.5-4.4,28.8-4.4L120.9,190.4z"/>
</g>
<g id="Layer_2">
	<g id="Layer_3" class="st0">
		<g class="st2">
			<rect x="-80" y="104.7" class="st3" width="25.6" height="25.6"/>
		</g>
		<g class="st2">
			<rect x="-80" y="134.8" class="st4" width="25.6" height="25.6"/>
		</g>
		<g class="st2">
			<rect x="-80" y="164.9" class="st5" width="25.6" height="25.6"/>
		</g>
		<g class="st2">
			<rect x="-80" y="195" class="st6" width="25.6" height="25.6"/>
		</g>
		<g class="st2">
			<rect x="-80" y="225.1" class="st7" width="25.6" height="25.6"/>
		</g>
		<g class="st2">
			<rect x="-80" y="255.1" class="st8" width="25.6" height="25.6"/>
		</g>
		<g class="st2">
			<rect x="-80" y="285.2" class="st9" width="25.6" height="25.6"/>
		</g>
	</g>
	<g>
		<polygon class="st5" points="649.9,146 570.8,279.3 570.8,279.8 80,279.8 0.9,146.5 80,13.2 570.8,13.2 570.8,12.7 		"/>
	</g>
	<g>
		<g>
			<path class="st9" d="M161.5,68.8v17.3c-4.8,0-8.5,0.7-11.2,2s-3.8,4-3.5,8l2.4,23.2c0.6,5.9,0,10.6-1.9,14.3
				c-1.9,3.6-4.8,6.4-8.7,8.3c-3.9,1.9-8.5,3.3-13.8,4.1c5.6,0.8,10.4,2.2,14.3,4.1c3.9,1.9,6.7,4.6,8.5,8.2
				c1.8,3.6,2.4,8.3,1.7,14.3l-2.4,23.2c-0.4,4,0.8,6.7,3.5,8c2.7,1.3,6.4,2,11.2,2v17.3c-14.5,0-24.7-2.2-30.5-6.6
				c-5.9-4.4-8.2-11.9-7.1-22.5l2.4-22.5c0.4-4-0.3-7.1-2-9.4c-1.8-2.3-4.3-3.8-7.8-4.8c-3.4-0.9-7.4-1.4-11.8-1.4V136
				c4.4,0,8.3-0.5,11.7-1.4c3.4-0.9,6-2.5,7.8-4.8c1.8-2.3,2.5-5.4,2-9.4l-2.4-22.4c-1.2-10.8,1.2-18.4,7.1-22.7
				C136.8,71,147,68.8,161.5,68.8z"/>
		</g>
		<g>
			<path class="st3" d="M217.7,201.2h-25.8V92h25.8V201.2z M218.4,142.9L248.3,92h27.1l-30.9,49l33.9,60.2h-29.9L218.4,142.9z"/>
		</g>
		<g>
			<g>
				<path class="st6" d="M307.7,132.8c0-3,0.7-5.7,2.2-8.2c1.5-2.5,3.5-4.5,6-6c2.5-1.5,5.3-2.3,8.4-2.3c4.6,0,8.5,1.6,11.7,4.9
					c3.2,3.3,4.8,7.2,4.8,11.6c0,4.5-1.6,8.3-4.8,11.6c-3.2,3.3-7.1,4.9-11.7,4.9s-8.5-1.6-11.8-4.9
					C309.3,141.1,307.7,137.3,307.7,132.8z M307.7,187.3c0-4.5,1.6-8.3,4.8-11.5c3.2-3.2,7.2-4.8,11.8-4.8s8.5,1.6,11.7,4.8
					c3.2,3.2,4.8,7,4.8,11.5c0,4.5-1.6,8.4-4.8,11.7c-3.2,3.3-7.1,4.9-11.7,4.9s-8.5-1.6-11.8-4.9
					C309.3,195.7,307.7,191.8,307.7,187.3z"/>
			</g>
		</g>
		<g>
			<path class="st3" d="M414.6,110.4v28.9h38.3v18.5h-38.3v43.3h-25.9V92h71.8l-2.7,18.4H414.6z"/>
		</g>
		<g>
			<path class="st9" d="M487.2,68.8c14.5,0,24.7,2.2,30.5,6.5c5.9,4.4,8.2,11.9,7.1,22.5l-2.4,22.5c-0.4,4,0.3,7.1,2.1,9.4
				c1.8,2.3,4.4,3.8,7.8,4.8c3.4,0.9,7.3,1.4,11.8,1.4v20.2c-4.4,0-8.3,0.5-11.7,1.4c-3.4,0.9-6,2.5-7.8,4.8
				c-1.8,2.3-2.5,5.4-2.1,9.4l2.4,22.4c1.2,10.8-1.1,18.3-7.1,22.7c-5.9,4.4-16.1,6.5-30.6,6.5v-17.3c4.8,0,8.6-0.7,11.3-2
				c2.7-1.3,3.8-4,3.4-8l-2.4-23.2c-0.6-5.9,0-10.7,1.9-14.3c1.9-3.6,4.8-6.4,8.8-8.3c3.9-1.9,8.6-3.3,13.9-4.1
				c-5.6-0.8-10.4-2.2-14.3-4.1c-3.9-1.9-6.8-4.6-8.5-8.2c-1.8-3.6-2.4-8.4-1.7-14.3l2.4-23.2c0.4-4-0.7-6.7-3.4-8
				c-2.7-1.3-6.4-2-11.2-2V68.8z"/>
		</g>
	</g>
</g>
</svg>
